<!DOCTYPE svg PUBLIC "-//W3C//DTD SVG 20010904//EN" "http://www.w3.org/TR/2001/REC-SVG-20010904/DTD/svg10.dtd">
<svg version="1.0" xmlns="http://www.w3.org/2000/svg" width="14px" height="17px" viewBox="0 0 140 170" preserveAspectRatio="xMidYMid meet">
<g id="layer1" fill="#cbcbcb" stroke="none">
 <path d="M97 160 c12 -5 26 -17 32 -27 9 -16 10 -15 11 10 0 24 -3 27 -32 26 -29 0 -30 -1 -11 -9z"/>
 <path d="M3 90 c0 -36 2 -50 4 -32 2 17 2 47 0 65 -2 17 -4 3 -4 -33z"/>
 <path d="M33 134 c-3 -9 -2 -24 4 -33 7 -11 7 -21 0 -32 -23 -37 25 -68 53 -34 10 12 10 18 0 30 -11 13 -10 18 6 30 15 11 17 18 8 32 -15 25 -62 30 -71 7z"/>
 <path d="M115 90 c-14 -15 -15 -23 -6 -34 14 -17 5 -43 -17 -49 -10 -3 -2 -5 16 -6 l32 -1 0 55 c0 30 -2 55 -3 55 -2 0 -12 -9 -22 -20z"/>
 </g>
<g id="layer2" fill="#8d8d8d" stroke="none">
 <path d="M7 163 c-2 -5 -4 -42 -3 -83 l1 -75 42 -3 c60 -4 87 12 79 49 -3 15 -1 31 4 34 18 11 10 54 -12 69 -23 16 -103 22 -111 9z m81 -45 c-7 -19 -38 -22 -38 -4 0 10 9 16 21 16 12 0 19 -5 17 -12z m-8 -68 c0 -5 -7 -10 -15 -10 -8 0 -15 5 -15 10 0 6 7 10 15 10 8 0 15 -4 15 -10z"/>
 </g>

</svg>