<!DOCTYPE svg PUBLIC "-//W3C//DTD SVG 20010904//EN" "http://www.w3.org/TR/2001/REC-SVG-20010904/DTD/svg10.dtd">
<svg version="1.0" xmlns="http://www.w3.org/2000/svg" width="18px" height="18px" viewBox="0 0 180 180" preserveAspectRatio="xMidYMid meet">
<g id="layer1" fill="#dcdcdc" stroke="none">
 <path d="M0 163 c0 -10 4 -14 8 -8 4 6 11 13 16 18 5 4 2 7 -7 7 -10 0 -17 -8 -17 -17z"/>
 <path d="M156 173 c5 -5 12 -12 16 -18 4 -6 8 -2 8 8 0 9 -7 17 -17 17 -9 0 -12 -3 -7 -7z"/>
 <path d="M20 109 c0 -40 3 -50 14 -46 8 3 20 -1 26 -9 7 -8 21 -14 31 -14 11 0 19 -4 19 -10 0 -5 11 -10 25 -10 24 0 25 2 25 70 l0 70 -70 0 -70 0 0 -51z"/>
 <path d="M0 17 c0 -10 8 -17 18 -17 9 0 13 4 7 8 -5 4 -13 11 -17 16 -5 5 -8 2 -8 -7z"/>
 <path d="M162 15 c-11 -12 -10 -15 3 -15 8 0 15 7 15 15 0 18 -2 18 -18 0z"/>
 </g>
<g id="layer2" fill="#9a9a9a" stroke="none">
 <path d="M12 168 c-16 -16 -16 -140 0 -156 16 -16 140 -16 156 0 16 16 16 140 0 156 -16 16 -140 16 -156 0z m48 -22 c0 -2 -7 -9 -15 -16 -12 -10 -15 -10 -15 4 0 9 7 16 15 16 8 0 15 -2 15 -4z m90 -12 c0 -14 -3 -14 -15 -4 -8 7 -15 14 -15 16 0 2 7 4 15 4 8 0 15 -7 15 -16z m-35 -44 c0 -18 -6 -26 -23 -28 -24 -4 -38 18 -28 44 3 9 15 14 28 12 17 -2 23 -10 23 -28z m35 -50 c0 -5 -4 -10 -10 -10 -5 0 -10 5 -10 10 0 6 5 10 10 10 6 0 10 -4 10 -10z"/>
 </g>

</svg>