<!DOCTYPE svg PUBLIC "-//W3C//DTD SVG 20010904//EN" "http://www.w3.org/TR/2001/REC-SVG-20010904/DTD/svg10.dtd">
<svg version="1.0" xmlns="http://www.w3.org/2000/svg" width="7px" height="9px" viewBox="0 0 70 90" preserveAspectRatio="xMidYMid meet">
<g id="layer1" fill="#d2d2d2" stroke="none">
 <path d="M12 70 c-25 -40 -10 -79 25 -66 12 5 14 9 5 18 -17 17 -15 25 8 31 11 3 20 12 20 21 0 23 -43 20 -58 -4z"/>
 </g>
<g id="layer2" fill="#fbfbfb" stroke="none">
 <path d="M0 63 c0 -14 1 -24 3 -22 1 2 11 14 21 27 19 22 19 22 -2 22 -17 0 -22 -6 -22 -27z"/>
 <path d="M26 61 c-3 -5 -5 -21 -4 -35 2 -20 8 -26 25 -26 20 0 23 5 23 35 0 28 -4 35 -19 35 -11 0 -22 -4 -25 -9z"/>
 </g>

</svg>